<svg width="80" height="22" viewBox="0 0 80 22" fill="none" xmlns="http://www.w3.org/2000/svg">
<path d="M28.4483 8.67401C28.3972 8.15838 28.1777 7.75781 27.79 7.4723C27.4022 7.18679 26.8759 7.04403 26.2111 7.04403C25.7594 7.04403 25.378 7.10795 25.0669 7.2358C24.7559 7.35937 24.5172 7.53196 24.351 7.75355C24.1891 7.97514 24.1081 8.22656 24.1081 8.50781C24.0996 8.74219 24.1486 8.94673 24.2551 9.12145C24.3659 9.29616 24.5172 9.44744 24.709 9.57528C24.9007 9.69886 25.1223 9.80753 25.3738 9.90128C25.6252 9.99077 25.8936 10.0675 26.1792 10.1314L27.3553 10.4126C27.9263 10.5405 28.4505 10.7109 28.9277 10.924C29.405 11.1371 29.8184 11.3991 30.1678 11.7102C30.5172 12.0213 30.7878 12.3878 30.9796 12.8097C31.1756 13.2315 31.2757 13.7152 31.28 14.2607C31.2757 15.0618 31.0712 15.7564 30.6664 16.3445C30.2658 16.9283 29.6863 17.3821 28.9277 17.706C28.1735 18.0256 27.2637 18.1854 26.1983 18.1854C25.1415 18.1854 24.2211 18.0234 23.437 17.6996C22.6571 17.3757 22.0478 16.8963 21.6088 16.2614C21.1742 15.6222 20.9462 14.8317 20.9249 13.8899H23.6032C23.633 14.3288 23.7587 14.6953 23.9803 14.9893C24.2061 15.2791 24.5066 15.4986 24.8816 15.6477C25.2608 15.7926 25.6891 15.8651 26.1664 15.8651C26.6351 15.8651 27.0421 15.7969 27.3873 15.6605C27.7367 15.5241 28.0073 15.3345 28.199 15.0916C28.3908 14.8487 28.4867 14.5696 28.4867 14.2543C28.4867 13.9602 28.3993 13.7131 28.2246 13.5128C28.0542 13.3125 27.8027 13.142 27.4703 13.0014C27.1422 12.8608 26.7395 12.733 26.2623 12.6179L24.8368 12.2599C23.7331 11.9915 22.8617 11.5717 22.2225 11.0007C21.5833 10.4297 21.2658 9.66051 21.2701 8.69318C21.2658 7.90057 21.4767 7.2081 21.9029 6.61577C22.3333 6.02344 22.9235 5.56108 23.6735 5.22869C24.4235 4.89631 25.2757 4.73011 26.2303 4.73011C27.2019 4.73011 28.0499 4.89631 28.7743 5.22869C29.503 5.56108 30.0698 6.02344 30.4746 6.61577C30.8794 7.2081 31.0882 7.89418 31.101 8.67401H28.4483ZM35.8136 12.3239V18H33.0906V8.18182H35.6857V9.91406H35.8008C36.0181 9.34304 36.3825 8.89133 36.8938 8.55895C37.4052 8.2223 38.0252 8.05398 38.7539 8.05398C39.4357 8.05398 40.0302 8.20312 40.5373 8.50142C41.0444 8.79972 41.4386 9.22585 41.7198 9.77983C42.0011 10.3295 42.1417 10.9858 42.1417 11.7486V18H39.4187V12.2344C39.4229 11.6335 39.2695 11.1648 38.9585 10.8281C38.6474 10.4872 38.2191 10.3168 37.6737 10.3168C37.3072 10.3168 36.9833 10.3956 36.7021 10.5533C36.4251 10.7109 36.2077 10.9411 36.0501 11.2436C35.8967 11.5419 35.8178 11.902 35.8136 12.3239ZM44.2878 18V8.18182H47.0108V18H44.2878ZM45.6557 6.91619C45.2509 6.91619 44.9036 6.78196 44.6138 6.51349C44.3283 6.24077 44.1855 5.91477 44.1855 5.53551C44.1855 5.16051 44.3283 4.83878 44.6138 4.57031C44.9036 4.29758 45.2509 4.16122 45.6557 4.16122C46.0605 4.16122 46.4057 4.29758 46.6912 4.57031C46.981 4.83878 47.1259 5.16051 47.1259 5.53551C47.1259 5.91477 46.981 6.24077 46.6912 6.51349C46.4057 6.78196 46.0605 6.91619 45.6557 6.91619ZM49.1921 21.6818V8.18182H51.8768V9.83097H51.9982C52.1175 9.56676 52.2901 9.2983 52.516 9.02557C52.7461 8.74858 53.0444 8.51847 53.4109 8.33523C53.7816 8.14773 54.2418 8.05398 54.7915 8.05398C55.5075 8.05398 56.168 8.24148 56.7731 8.61648C57.3782 8.98722 57.8619 9.54759 58.2241 10.2976C58.5863 11.0433 58.7674 11.9787 58.7674 13.1037C58.7674 14.1989 58.5906 15.1236 58.2369 15.8778C57.8874 16.6278 57.4102 17.1967 56.805 17.5845C56.2042 17.968 55.5309 18.1598 54.7852 18.1598C54.2567 18.1598 53.8072 18.0724 53.4364 17.8977C53.07 17.723 52.7695 17.5036 52.5352 17.2393C52.3008 16.9709 52.1218 16.7003 51.9982 16.4276H51.9151V21.6818H49.1921ZM51.8576 13.0909C51.8576 13.6747 51.9386 14.1839 52.1005 14.6186C52.2624 15.0533 52.4968 15.392 52.8036 15.6349C53.1104 15.8736 53.4833 15.9929 53.9222 15.9929C54.3654 15.9929 54.7404 15.8714 55.0472 15.6286C55.354 15.3814 55.5863 15.0405 55.744 14.6058C55.9059 14.1669 55.9869 13.6619 55.9869 13.0909C55.9869 12.5241 55.908 12.0256 55.7504 11.5952C55.5927 11.1648 55.3604 10.8281 55.0536 10.5852C54.7468 10.3423 54.3697 10.2209 53.9222 10.2209C53.479 10.2209 53.104 10.3381 52.7972 10.5724C52.4947 10.8068 52.2624 11.1392 52.1005 11.5696C51.9386 12 51.8576 12.5071 51.8576 13.0909ZM60.5827 21.6818V8.18182H63.2674V9.83097H63.3888C63.5082 9.56676 63.6808 9.2983 63.9066 9.02557C64.1367 8.74858 64.435 8.51847 64.8015 8.33523C65.1722 8.14773 65.6325 8.05398 66.1822 8.05398C66.8981 8.05398 67.5586 8.24148 68.1637 8.61648C68.7688 8.98722 69.2525 9.54759 69.6147 10.2976C69.9769 11.0433 70.158 11.9787 70.158 13.1037C70.158 14.1989 69.9812 15.1236 69.6275 15.8778C69.2781 16.6278 68.8008 17.1967 68.1957 17.5845C67.5948 17.968 66.9215 18.1598 66.1758 18.1598C65.6474 18.1598 65.1978 18.0724 64.8271 17.8977C64.4606 17.723 64.1602 17.5036 63.9258 17.2393C63.6914 16.9709 63.5124 16.7003 63.3888 16.4276H63.3058V21.6818H60.5827ZM63.2482 13.0909C63.2482 13.6747 63.3292 14.1839 63.4911 14.6186C63.6531 15.0533 63.8874 15.392 64.1942 15.6349C64.5011 15.8736 64.8739 15.9929 65.3129 15.9929C65.756 15.9929 66.131 15.8714 66.4379 15.6286C66.7447 15.3814 66.9769 15.0405 67.1346 14.6058C67.2965 14.1669 67.3775 13.6619 67.3775 13.0909C67.3775 12.5241 67.2987 12.0256 67.141 11.5952C66.9833 11.1648 66.7511 10.8281 66.4442 10.5852C66.1374 10.3423 65.7603 10.2209 65.3129 10.2209C64.8697 10.2209 64.4947 10.3381 64.1879 10.5724C63.8853 10.8068 63.6531 11.1392 63.4911 11.5696C63.3292 12 63.2482 12.5071 63.2482 13.0909ZM71.9734 18V8.18182H74.6964V18H71.9734ZM73.3413 6.91619C72.9364 6.91619 72.5891 6.78196 72.2994 6.51349C72.0138 6.24077 71.8711 5.91477 71.8711 5.53551C71.8711 5.16051 72.0138 4.83878 72.2994 4.57031C72.5891 4.29758 72.9364 4.16122 73.3413 4.16122C73.7461 4.16122 74.0913 4.29758 74.3768 4.57031C74.6665 4.83878 74.8114 5.16051 74.8114 5.53551C74.8114 5.91477 74.6665 6.24077 74.3768 6.51349C74.0913 6.78196 73.7461 6.91619 73.3413 6.91619Z" fill="white"/>
<rect x="7.07306" y="4" width="5" height="9" rx="1" transform="rotate(46.8476 7.07306 4)" fill="#0284C7"/>
<rect x="6.56586" y="8.40158" width="5" height="9" rx="1" transform="rotate(46.8476 6.56586 8.40158)" fill="#7DD3FC"/>
</svg>
