<svg width="18" height="18" viewBox="0 0 18 18" fill="none" xmlns="http://www.w3.org/2000/svg">
<path d="M15.4858 2.00565L9.86438 6.18079L10.9039 3.71751L15.4858 2.00565Z" fill="#E2761B" stroke="#E2761B" stroke-linecap="round" stroke-linejoin="round"/>
<path d="M2.50848 2.00565L8.08476 6.22033L7.09605 3.71751L2.50848 2.00565Z" fill="#E4761B" stroke="#E4761B" stroke-linecap="round" stroke-linejoin="round"/>
<path d="M13.4633 11.6836L11.9661 13.9774L15.1695 14.8588L16.0904 11.7345L13.4633 11.6836Z" fill="#E4761B" stroke="#E4761B" stroke-linecap="round" stroke-linejoin="round"/>
<path d="M1.91528 11.7345L2.83054 14.8588L6.03393 13.9774L4.53675 11.6836L1.91528 11.7345Z" fill="#E4761B" stroke="#E4761B" stroke-linecap="round" stroke-linejoin="round"/>
<path d="M5.85317 7.8079L4.96051 9.15818L8.1413 9.29943L8.02831 5.88135L5.85317 7.8079Z" fill="#E4761B" stroke="#E4761B" stroke-linecap="round" stroke-linejoin="round"/>
<path d="M12.1413 7.8079L9.93789 5.8418L9.86444 9.29942L13.0396 9.15818L12.1413 7.8079Z" fill="#E4761B" stroke="#E4761B" stroke-linecap="round" stroke-linejoin="round"/>
<path d="M6.03394 13.9774L7.94354 13.0452L6.29382 11.757L6.03394 13.9774Z" fill="#E4761B" stroke="#E4761B" stroke-linecap="round" stroke-linejoin="round"/>
<path d="M10.0508 13.0452L11.9661 13.9774L11.7006 11.757L10.0508 13.0452Z" fill="#E4761B" stroke="#E4761B" stroke-linecap="round" stroke-linejoin="round"/>
<path d="M11.9661 13.9774L10.0508 13.0452L10.2034 14.2938L10.1864 14.8192L11.9661 13.9774Z" fill="#D7C1B3" stroke="#D7C1B3" stroke-linecap="round" stroke-linejoin="round"/>
<path d="M6.03387 13.9774L7.81353 14.8192L7.80224 14.2938L7.94348 13.0452L6.03387 13.9774Z" fill="#D7C1B3" stroke="#D7C1B3" stroke-linecap="round" stroke-linejoin="round"/>
<path d="M7.84182 10.9322L6.2486 10.4633L7.37289 9.94916L7.84182 10.9322Z" fill="#233447" stroke="#233447" stroke-linecap="round" stroke-linejoin="round"/>
<path d="M10.1525 10.9322L10.6215 9.94916L11.7514 10.4633L10.1525 10.9322Z" fill="#233447" stroke="#233447" stroke-linecap="round" stroke-linejoin="round"/>
<path d="M6.03392 13.9774L6.30511 11.6836L4.53674 11.7345L6.03392 13.9774Z" fill="#CD6116" stroke="#CD6116" stroke-linecap="round" stroke-linejoin="round"/>
<path d="M11.6949 11.6836L11.9661 13.9774L13.4633 11.7345L11.6949 11.6836Z" fill="#CD6116" stroke="#CD6116" stroke-linecap="round" stroke-linejoin="round"/>
<path d="M13.0396 9.1582L9.86444 9.29945L10.1582 10.9322L10.6271 9.94916L11.7571 10.4633L13.0396 9.1582Z" fill="#CD6116" stroke="#CD6116" stroke-linecap="round" stroke-linejoin="round"/>
<path d="M6.24858 10.4633L7.37853 9.94916L7.8418 10.9322L8.14124 9.29945L4.96045 9.1582L6.24858 10.4633Z" fill="#CD6116" stroke="#CD6116" stroke-linecap="round" stroke-linejoin="round"/>
<path d="M4.96045 9.1582L6.29378 11.7571L6.24858 10.4633L4.96045 9.1582Z" fill="#E4751F" stroke="#E4751F" stroke-linecap="round" stroke-linejoin="round"/>
<path d="M11.7571 10.4633L11.7006 11.7571L13.0395 9.1582L11.7571 10.4633Z" fill="#E4751F" stroke="#E4751F" stroke-linecap="round" stroke-linejoin="round"/>
<path d="M8.14123 9.29944L7.8418 10.9322L8.21468 12.8588L8.29942 10.322L8.14123 9.29944Z" fill="#E4751F" stroke="#E4751F" stroke-linecap="round" stroke-linejoin="round"/>
<path d="M9.8644 9.29944L9.71185 10.3164L9.77965 12.8588L10.1582 10.9322L9.8644 9.29944Z" fill="#E4751F" stroke="#E4751F" stroke-linecap="round" stroke-linejoin="round"/>
<path d="M10.1582 10.9322L9.77966 12.8587L10.0508 13.0452L11.7006 11.757L11.7571 10.4633L10.1582 10.9322Z" fill="#F6851B" stroke="#F6851B" stroke-linecap="round" stroke-linejoin="round"/>
<path d="M6.2486 10.4633L6.29379 11.757L7.94351 13.0452L8.2147 12.8587L7.84182 10.9322L6.2486 10.4633Z" fill="#F6851B" stroke="#F6851B" stroke-linecap="round" stroke-linejoin="round"/>
<path d="M10.1864 14.8192L10.2034 14.2938L10.0621 14.1695H7.93218L7.80224 14.2938L7.81354 14.8192L6.03387 13.9774L6.65534 14.4859L7.91523 15.3616H10.0791L11.3446 14.4859L11.9661 13.9774L10.1864 14.8192Z" fill="#C0AD9E" stroke="#C0AD9E" stroke-linecap="round" stroke-linejoin="round"/>
<path d="M10.0508 13.0452L9.77965 12.8588H8.21467L7.94349 13.0452L7.80225 14.2938L7.93219 14.1695H10.0621L10.2034 14.2938L10.0508 13.0452Z" fill="#161616" stroke="#161616" stroke-linecap="round" stroke-linejoin="round"/>
<path d="M15.7232 6.45197L16.2034 4.14689L15.4859 2.00565L10.0508 6.03954L12.1412 7.80791L15.096 8.67231L15.7514 7.9096L15.4689 7.70621L15.9209 7.29378L15.5706 7.02259L16.0226 6.67796L15.7232 6.45197Z" fill="#763D16" stroke="#763D16" stroke-linecap="round" stroke-linejoin="round"/>
<path d="M1.79663 4.14689L2.27686 6.45197L1.97177 6.67796L2.42375 7.02259L2.07912 7.29378L2.5311 7.70621L2.24861 7.9096L2.89833 8.67231L5.85313 7.80791L7.94353 6.03954L2.5085 2.00565L1.79663 4.14689Z" fill="#763D16" stroke="#763D16" stroke-linecap="round" stroke-linejoin="round"/>
<path d="M15.096 8.67233L12.1412 7.80792L13.0395 9.15821L11.7006 11.7571L13.4633 11.7345H16.0904L15.096 8.67233Z" fill="#F6851B" stroke="#F6851B" stroke-linecap="round" stroke-linejoin="round"/>
<path d="M5.85314 7.80792L2.89833 8.67233L1.91528 11.7345H4.53675L6.29381 11.7571L4.96048 9.15821L5.85314 7.80792Z" fill="#F6851B" stroke="#F6851B" stroke-linecap="round" stroke-linejoin="round"/>
<path d="M9.86443 9.29945L10.0509 6.03956L10.9096 3.71753H7.09607L7.94353 6.03956L8.14127 9.29945L8.20906 10.3277L8.21471 12.8588H9.77968L9.79098 10.3277L9.86443 9.29945Z" fill="#F6851B" stroke="#F6851B" stroke-linecap="round" stroke-linejoin="round"/>
</svg>
